<svg width="30" height="34" viewBox="0 0 30 34" fill="none" xmlns="http://www.w3.org/2000/svg">
<g clip-path="url(#clip0_20_10)">
<path d="M27.9163 16.875C29.0669 16.875 29.9997 15.4059 29.9997 13.5938C29.9997 11.7816 29.0669 10.3125 27.9163 10.3125C26.7657 10.3125 25.833 11.7816 25.833 13.5938C25.833 15.4059 26.7657 16.875 27.9163 16.875Z" fill="#F4900C"/>
<path d="M2.08333 16.875C3.23393 16.875 4.16667 15.4059 4.16667 13.5938C4.16667 11.7816 3.23393 10.3125 2.08333 10.3125C0.93274 10.3125 0 11.7816 0 13.5938C0 15.4059 0.93274 16.875 2.08333 16.875Z" fill="#F4900C"/>
<path d="M28.3337 17.8125C28.3337 18.0611 28.2459 18.2996 28.0896 18.4754C27.9333 18.6512 27.7213 18.75 27.5003 18.75H25.0003C24.7793 18.75 24.5673 18.6512 24.4111 18.4754C24.2548 18.2996 24.167 18.0611 24.167 17.8125V9.375C24.167 9.12636 24.2548 8.8879 24.4111 8.71209C24.5673 8.53627 24.7793 8.4375 25.0003 8.4375H27.5003C27.7213 8.4375 27.9333 8.53627 28.0896 8.71209C28.2459 8.8879 28.3337 9.12636 28.3337 9.375V17.8125ZM5.83366 17.8125C5.83366 18.0611 5.74586 18.2996 5.58958 18.4754C5.4333 18.6512 5.22134 18.75 5.00033 18.75H2.50033C2.27931 18.75 2.06735 18.6512 1.91107 18.4754C1.75479 18.2996 1.66699 18.0611 1.66699 17.8125V9.375C1.66699 9.12636 1.75479 8.8879 1.91107 8.71209C2.06735 8.53627 2.27931 8.4375 2.50033 8.4375H5.00033C5.22134 8.4375 5.4333 8.53627 5.58958 8.71209C5.74586 8.8879 5.83366 9.12636 5.83366 9.375V17.8125Z" fill="#FFAC33"/>
<path d="M23.3337 4.6875C23.3337 7.27594 19.602 8.4375 15.0003 8.4375C10.3978 8.4375 6.66699 7.27594 6.66699 4.6875C6.66699 2.09906 10.3978 0 15.0003 0C19.602 0 23.3337 2.09906 23.3337 4.6875Z" fill="#FFCC4D"/>
<path d="M20.8337 3.82746C20.8337 5.33777 18.2212 6.56215 15.0003 6.56215C11.7787 6.56215 9.16699 5.33777 9.16699 3.82746C9.16699 2.31715 11.7787 1.09277 15.0003 1.09277C18.2212 1.09277 20.8337 2.31715 20.8337 3.82746Z" fill="#F4900C"/>
<path d="M25 5.15625C25 6.45094 24.0675 6.5625 22.9167 6.5625H7.08333C5.9325 6.5625 5 6.45094 5 5.15625C5 3.86156 5.9325 2.8125 7.08333 2.8125H22.9167C23.4692 2.8125 23.9991 3.05943 24.3898 3.49897C24.7805 3.93851 25 4.53465 25 5.15625Z" fill="#226699"/>
<path d="M24.9997 5.625H4.99967C4.55765 5.625 4.13372 5.82254 3.82116 6.17417C3.5086 6.52581 3.33301 7.00272 3.33301 7.5V31.875H26.6663V7.5C26.6663 7.00272 26.4907 6.52581 26.1782 6.17417C25.8656 5.82254 25.4417 5.625 24.9997 5.625Z" fill="#55ACEE"/>
<path d="M29.1666 30.9375V30C29.1666 29.5027 28.991 29.0258 28.6784 28.6742C28.3659 28.3225 27.9419 28.125 27.4999 28.125H18.3924L15.5891 31.2787C15.5117 31.3659 15.4199 31.435 15.3188 31.4822C15.2177 31.5293 15.1093 31.5536 14.9999 31.5536C14.8905 31.5536 14.7821 31.5293 14.681 31.4822C14.5799 31.435 14.4881 31.3659 14.4107 31.2787L11.6074 28.125H2.4999C2.05787 28.125 1.63395 28.3225 1.32139 28.6742C1.00883 29.0258 0.833233 29.5027 0.833233 30V30.9375C0.833233 31.9725 0.746566 32.8125 1.66657 32.8125H28.3332C29.2532 32.8125 29.1666 31.9725 29.1666 30.9375Z" fill="#3B88C3"/>
<path d="M20.417 17.8125C22.4881 17.8125 24.167 15.9237 24.167 13.5938C24.167 11.2638 22.4881 9.375 20.417 9.375C18.3459 9.375 16.667 11.2638 16.667 13.5938C16.667 15.9237 18.3459 17.8125 20.417 17.8125Z" fill="white"/>
<path d="M20.4169 16.1448C21.6692 16.1448 22.6844 15.0027 22.6844 13.5939C22.6844 12.1851 21.6692 11.043 20.4169 11.043C19.1646 11.043 18.1494 12.1851 18.1494 13.5939C18.1494 15.0027 19.1646 16.1448 20.4169 16.1448Z" fill="#DD2E44"/>
<path d="M9.58301 17.8125C11.6541 17.8125 13.333 15.9237 13.333 13.5938C13.333 11.2638 11.6541 9.375 9.58301 9.375C7.51194 9.375 5.83301 11.2638 5.83301 13.5938C5.83301 15.9237 7.51194 17.8125 9.58301 17.8125Z" fill="white"/>
<path d="M24.1663 23.9062C24.1663 24.5279 23.9468 25.124 23.5561 25.5635C23.1654 26.0031 22.6355 26.25 22.083 26.25H7.91634C7.36381 26.25 6.8339 26.0031 6.4432 25.5635C6.0525 25.124 5.83301 24.5279 5.83301 23.9062C5.83301 23.2846 6.0525 22.6885 6.4432 22.249C6.8339 21.8094 7.36381 21.5625 7.91634 21.5625H22.083C22.6355 21.5625 23.1654 21.8094 23.5561 22.249C23.9468 22.6885 24.1663 23.2846 24.1663 23.9062Z" fill="#F5F8FA"/>
<path d="M14.1663 21.5625H15.833V26.25H14.1663V21.5625ZM9.99967 21.5625H11.6663V26.25H9.99967V21.5625ZM18.333 21.5625H19.9997V26.25H18.333V21.5625ZM5.83301 23.9062C5.83291 24.4466 5.99875 24.9703 6.30246 25.3889C6.60618 25.8074 7.02911 26.0951 7.49967 26.2031V21.6094C7.02911 21.7174 6.60618 22.0051 6.30246 22.4236C5.99875 22.8422 5.83291 23.3659 5.83301 23.9062ZM22.4997 21.6094V26.2022C22.9702 26.0942 23.3931 25.8066 23.6968 25.3881C24.0005 24.9697 24.1664 24.446 24.1664 23.9058C24.1664 23.3655 24.0005 22.8419 23.6968 22.4234C23.3931 22.005 22.9702 21.7174 22.4997 21.6094Z" fill="#CCD6DD"/>
<path d="M9.58293 16.1448C10.8352 16.1448 11.8504 15.0027 11.8504 13.5939C11.8504 12.1851 10.8352 11.043 9.58293 11.043C8.33062 11.043 7.31543 12.1851 7.31543 13.5939C7.31543 15.0027 8.33062 16.1448 9.58293 16.1448Z" fill="#DD2E44"/>
</g>
<defs>
<clipPath id="clip0_20_10">
<rect width="30" height="33.75" fill="white"/>
</clipPath>
</defs>
</svg>
